<svg id="FACEBOOK" xmlns="http://www.w3.org/2000/svg" width="100" height="100" viewBox="0 0 100 100">
  <rect id="Rectangle_149" data-name="Rectangle 149" width="100" height="100" rx="50" transform="translate(0 0)" fill="#fff"/>
  <path id="Path_3288" data-name="Path 3288" d="M288.509,43.753c1.614-.052,3.228-.009,4.842-.017h.672V35.343c-.864-.087-1.762-.209-2.67-.253-1.658-.079-3.315-.157-4.973-.122a12.194,12.194,0,0,0-7.023,2.172,10.456,10.456,0,0,0-4.214,7.006,23.809,23.809,0,0,0-.288,3.6c-.053,1.884-.018,3.778-.009,5.662v.707H266.8V63.5h7.992V87.08h9.763V63.541h7.974c.4-3.123.8-6.212,1.221-9.431h-1.8c-2.26.009-7.46,0-7.46,0s.026-4.65.079-6.666C284.652,44.678,286.293,43.832,288.509,43.753Z" transform="translate(-230.412 -11.02)" fill="#9b1f15" fill-rule="evenodd"/>
</svg>
