<svg id="INSTAGRAM" xmlns="http://www.w3.org/2000/svg" width="100" height="100" viewBox="0 0 100 100">
  <rect id="Rectangle_177" data-name="Rectangle 177" width="100" height="100" rx="50" transform="translate(0 0)" fill="#fff"/>
  <path id="Path_3360" data-name="Path 3360" d="M374.1,47.832a13.315,13.315,0,0,0-4.046-8.536,13.84,13.84,0,0,0-9.163-3.715c-5.874-.322-19.822-.522-24.721.27a12.61,12.61,0,0,0-10.807,9.711c-1.192,4.246-.958,23.851-.261,28.053.948,5.752,4.342,9.432,10.041,10.9,3.942,1.009,23.311.888,27.662.183,5.752-.931,9.45-4.307,10.947-10C374.9,70.334,374.5,51.765,374.1,47.832Zm-4.6,24.973a8.455,8.455,0,0,1-7.953,7.544c-4.037.444-22.041.687-25.773-.357a8.2,8.2,0,0,1-6.222-7.057c-.566-3.446-.7-20.631-.009-25.225a8.457,8.457,0,0,1,7.919-7.518c4.429-.5,20.361-.548,24.608.1a8.472,8.472,0,0,1,7.535,7.971C370.05,52.366,370.172,68.394,369.5,72.805ZM349.523,47.458a12.813,12.813,0,1,0,12.817,12.826A12.8,12.8,0,0,0,349.523,47.458Zm-.1,21.1a8.288,8.288,0,1,1,8.38-8.258A8.282,8.282,0,0,1,349.427,68.559Zm16.4-21.58a3,3,0,1,1-2.976-3.019A2.977,2.977,0,0,1,365.83,46.98Z" transform="translate(-299.518 -10.275)" fill="#9b1f15"/>
</svg>
