<svg xmlns="http://www.w3.org/2000/svg" width="1385.589" height="237.352" viewBox="0 0 1385.589 237.352">
  <g id="BKPM_NEW_2024_ID_WHITE_ALT_1" data-name="BKPM NEW 2024 ID WHITE ALT 1" transform="translate(18779.745 9482.022)">
    <path id="Path_19850" data-name="Path 19850" d="M24.252-60.286H11.094L2.666,0H15.824Zm31.82,0H41.194L20.554-31.82l-.086.344L34.486,0H48.934L34.228-31.3ZM94.342,0,95.8-10.836H72.154L74.218-25.2H93.654l1.462-10.836H75.68L77.572-49.45H100.19l1.548-10.836H66.048L57.62,0ZM142.76-27.778l-6.88-32.508H115.842L107.414,0h12.47l6.192-44.634h.516l8,37.41h10.492l18.662-37.41h.344L157.9,0h12.47l8.428-60.286H158.928L143.1-27.778ZM222.568,0l1.462-10.836H200.38L202.444-25.2H221.88l1.462-10.836H203.906L205.8-49.45h22.618l1.548-10.836h-35.69L185.846,0Zm31.218-43.86a164.968,164.968,0,0,0,5.59,18.4L268.922,0h15.394l8.428-60.286h-12.47l-2.666,19.092c-.946,6.364-2.064,14.706-2.58,23.134h-.344a172.723,172.723,0,0,0-6.192-18.49l-8.686-23.736H244.068L235.64,0H248.2l3.182-22.79a189.126,189.126,0,0,0,2.064-21.07ZM307.278,0h13.158l6.88-49.45H342.28l1.548-10.836H300.742L299.194-49.45h14.964Zm73.014,0,1.462-10.836H358.1L360.168-25.2H379.6l1.462-10.836H361.63l1.892-13.416H386.14l1.548-10.836H352L343.57,0Zm21.5-60.286L393.364,0H406.35l3.1-22.446h1.978c2.666,0,4.386.688,5.16,2.838L423.98,0h14.1l-6.708-16.082c-2.064-5.074-3.784-7.568-6.622-9.116v-.344c7.4-1.118,15.05-5.848,15.05-19.006,0-10.664-7.482-15.738-19.608-15.738ZM413.23-49.45h5.676c5.074,0,7.568,1.806,7.568,5.848,0,6.536-3.1,10.75-10.578,10.75h-4.988ZM448.06,0h13.158l8.428-60.286H456.488Zm50.654-60.286L472.054,0h13.76l5.762-13.846h20.21L513.678,0h13.244l-9.89-60.286Zm1.118,26.832c3.268-7.654,5.246-12.556,6.966-17.716h.344a181.262,181.262,0,0,0,2.064,18.06l1.118,8.428h-14.19ZM554.614-43.86a164.968,164.968,0,0,0,5.59,18.4L569.75,0h15.394l8.428-60.286H581.1l-2.666,19.092c-.946,6.364-2.064,14.706-2.58,23.134h-.344a172.73,172.73,0,0,0-6.192-18.49l-8.686-23.736H544.9L536.468,0h12.556l3.182-22.79a189.116,189.116,0,0,0,2.064-21.07ZM623.07,0h13.158l8.428-60.286H631.5Zm47.214-43.86a164.968,164.968,0,0,0,5.59,18.4L685.42,0h15.394l8.428-60.286h-12.47l-2.666,19.092c-.946,6.364-2.064,14.706-2.58,23.134h-.344a172.73,172.73,0,0,0-6.192-18.49L676.3-60.286H660.566L652.138,0h12.556l3.182-22.79a189.116,189.116,0,0,0,2.064-21.07ZM727.818,0h17.028l27.778-60.286H758.176L744.33-27.692c-2.494,5.848-4.558,11.18-6.45,16.77h-.344c-.344-5.762-1.2-11.094-1.892-16.684l-4.73-32.68H716.9ZM809.69,0l1.462-10.836H787.5L789.566-25.2H809l1.462-10.836H791.028L792.92-49.45h22.618l1.548-10.836H781.4L772.968,0Zm32.164-10.234a19.062,19.062,0,0,1-14.362-6.88L819.236-6.88C825.17-1.548,831.792.86,840.478.86c15.48,0,23.392-8.514,23.392-20.382,0-15.222-24.08-15.652-24.08-24.166,0-3.354,2.924-6.106,7.568-6.106a12.391,12.391,0,0,1,10.578,5.246l9.116-9.116c-1.634-2.58-6.966-7.482-17.028-7.482-13.674,0-23.908,7.74-23.908,20.21,0,15.222,24.252,15.824,24.252,24.252C850.368-13.33,847.616-10.234,841.854-10.234ZM879.694,0h13.158l6.88-49.45H914.7l1.548-10.836H873.158L871.61-49.45h14.964Zm55.3-60.286L908.332,0h13.76l5.762-13.846h20.21L949.956,0H963.2l-9.89-60.286Zm1.118,26.832c3.268-7.654,5.246-12.556,6.966-17.716h.344a181.245,181.245,0,0,0,2.064,18.06l1.118,8.428h-14.19Zm55.728,23.22a19.062,19.062,0,0,1-14.362-6.88L969.22-6.88C975.154-1.548,981.776.86,990.462.86c15.48,0,23.392-8.514,23.392-20.382,0-15.222-24.08-15.652-24.08-24.166,0-3.354,2.924-6.106,7.568-6.106a12.391,12.391,0,0,1,10.578,5.246l9.116-9.116c-1.634-2.58-6.966-7.482-17.028-7.482-13.674,0-23.908,7.74-23.908,20.21,0,15.222,24.252,15.824,24.252,24.252C1000.352-13.33,997.6-10.234,991.838-10.234ZM1024,0h13.158l8.428-60.286H1032.43ZM2.666,103H23.908C46.354,103,54.7,85.628,54.7,65.676c0-17.114-10.234-22.962-27.262-22.962H11.094ZM22.618,53.55H28.9c7.74,0,12.04,3.7,12.04,12.556,0,16.254-5.332,26.058-18.92,26.058H17.2ZM81.786,42.714,55.126,103h13.76l5.762-13.846h20.21L96.75,103h13.244L100.1,42.714ZM82.9,69.546C86.172,61.892,88.15,56.99,89.87,51.83h.344a181.257,181.257,0,0,0,2.064,18.06L93.4,78.318H79.206ZM137.686,59.14a164.968,164.968,0,0,0,5.59,18.4L152.822,103h15.394l8.428-60.286h-12.47l-2.666,19.092c-.946,6.364-2.064,14.706-2.58,23.134h-.344a172.73,172.73,0,0,0-6.192-18.49l-8.686-23.736H127.968L119.54,103H132.1l3.182-22.79a189.126,189.126,0,0,0,2.064-21.07ZM249.228,42.714l-3.44,24.768h-21.93l3.44-24.768H214.14L205.712,103H218.87l3.44-24.682h21.93L240.8,103h13.158l8.428-60.286ZM269.868,103h13.158l8.428-60.286H278.3Zm37.5-60.286L298.936,103h35.346l1.462-10.836H313.556l6.966-49.45ZM344.86,103h13.158l8.428-60.286H353.288Zm37.5-60.286L373.928,103h12.986l3.1-22.446h1.978c2.666,0,4.386.688,5.16,2.838l7.4,19.608h14.1L411.94,86.918c-2.064-5.074-3.784-7.568-6.622-9.116v-.344c7.4-1.118,15.05-5.848,15.05-19.006,0-10.664-7.482-15.738-19.608-15.738ZM393.794,53.55h5.676c5.074,0,7.568,1.806,7.568,5.848,0,6.536-3.1,10.75-10.578,10.75h-4.988ZM428.624,103h13.158l8.428-60.286H437.052Zm48.16-10.234a19.062,19.062,0,0,1-14.362-6.88L454.166,96.12c5.934,5.332,12.556,7.74,21.242,7.74,15.48,0,23.392-8.514,23.392-20.382,0-15.222-24.08-15.652-24.08-24.166,0-3.354,2.924-6.106,7.568-6.106a12.391,12.391,0,0,1,10.578,5.246l9.116-9.116c-1.634-2.58-6.966-7.482-17.028-7.482-13.674,0-23.908,7.74-23.908,20.21,0,15.222,24.252,15.824,24.252,24.252C485.3,89.67,482.546,92.766,476.784,92.766ZM530.1,42.714,503.444,103H517.2l5.762-13.846h20.21L545.068,103h13.244l-9.89-60.286Zm1.118,26.832c3.268-7.654,5.246-12.556,6.966-17.716h.344A181.245,181.245,0,0,0,540.6,69.89l1.118,8.428h-14.19Zm55.728,23.22a19.062,19.062,0,0,1-14.362-6.88L564.332,96.12c5.934,5.332,12.556,7.74,21.242,7.74,15.48,0,23.392-8.514,23.392-20.382,0-15.222-24.08-15.652-24.08-24.166,0-3.354,2.924-6.106,7.568-6.106a12.391,12.391,0,0,1,10.578,5.246l9.116-9.116c-1.634-2.58-6.966-7.482-17.028-7.482-13.674,0-23.908,7.74-23.908,20.21,0,15.222,24.252,15.824,24.252,24.252C595.464,89.67,592.712,92.766,586.95,92.766ZM619.114,103h13.158L640.7,42.714H627.542ZM640.7,116.674h10.75L684.818,40.22h-10.75Zm79.292-45.236.086-.344c5.16-1.72,10.75-6.192,10.75-14.792,0-9.546-6.88-13.588-16.856-13.588H691.956L683.528,103H704c22.016,0,26.058-12.212,26.058-20.038C730.054,75.308,725.152,72.126,719.992,71.438Zm-2.15-12.814c0,5.5-3.526,8.256-9.2,8.256h-7.052l1.806-13.33h8C716.294,53.55,717.842,55.442,717.842,58.624Zm-10.32,33.54h-9.546l2.064-14.448h8.944c4.386,0,7.568,1.548,7.568,5.762C716.552,87.176,714.918,92.164,707.522,92.164Zm53.406-49.45H747.77L739.342,103H752.5Zm31.82,0H777.87L757.23,71.18l-.086.344L771.162,103H785.61L770.9,71.7Zm29.068,0H802.724L794.3,103h13.158l3.01-21.414h6.45c18.834,0,25.2-10.75,25.2-22.36C842.112,46.756,834.114,42.714,821.816,42.714Zm-1.2,11.094c5.762,0,7.826,1.978,7.826,6.278,0,5.762-2.322,10.75-11.094,10.75h-5.418l2.408-17.028Zm61.576,21.414-6.88-32.508H855.27L846.842,103h12.47L865.5,58.366h.516l8,37.41H884.51l18.662-37.41h.344L897.324,103h12.47l8.428-60.286H898.356L882.532,75.222Z" transform="translate(-18439.744 -9372.347)" fill="#fff"/>
    <path id="Path_19836" data-name="Path 19836" d="M228.556,95.532c-26.692,1.484-48.176,6.026-61.732,15.274-14.252,10.272-23.091,22.007-24.911,35.654-1.218,4.205-1.484,43.9-1.463,67.062L78.227,246.2l-63.042-31.47.829-61.312c-.44-31.592,8.287-62.09,28.113-91.206,13.771-16.328,26.733-36.072,49-49.035,4.706-3.663,12.891-5.115,25.208-3.918,11.376,1.084,20.145,3.734,27.173,7.468-35.06,14.231-63,34.733-81.016,63.982-10.8,18.62-17.862,38.3-19.254,59.583l-.746,60.29,18.926,10.763L64.467,149.5c2.25-29.208,12.021-51.9,27.469-69.087C103.088,67.193,120.93,54.19,141.964,44a47.407,47.407,0,0,1,31.091-2.916,109.54,109.54,0,0,1,28.471,11.039c-32.349,6.189-61.445,18.415-75.931,32.2-17.382,17.372-30.038,35.224-31.992,54.2-1.146,7.929-1.3,47.716-1.484,71.983l19.939-9.565-.071-53.823c2.148-16.482,10.036-30.57,21.586-43.153,6.609-7.193,26.293-19.336,42.57-24.922C195.664,71.111,215.41,81.955,228.556,95.532Z" transform="translate(-18707.631 -9490.869)" fill="#fff" fill-rule="evenodd"/>
    <path id="Path_19837" data-name="Path 19837" d="M4.847,95.532c26.681,1.484,48.176,6.026,61.731,15.274C80.83,121.078,89.669,132.812,91.49,146.46c1.218,4.205.654,45.107.644,68.269l63.041,31.47L217.4,213.521v-60.1c.44-31.592-8.3-62.09-28.114-91.206-13.77-16.328-26.743-36.072-48.994-49.035-4.707-3.663-12.89-5.115-25.208-3.918-11.377,1.084-20.144,3.734-27.173,7.468,35.05,14.231,63,34.733,81.016,63.982,10.8,18.62,17.863,38.3,19.254,59.583L189,200.948l-19.939,9.565-.1-61.015c-2.251-29.208-12.022-51.9-27.47-69.087C130.335,67.193,112.493,54.19,91.459,44a47.417,47.417,0,0,0-31.091-2.916A109.531,109.531,0,0,0,31.9,52.123c32.349,6.189,61.445,18.415,75.932,32.2,17.382,17.372,30.037,35.224,31.991,54.2,1.146,7.929.358,48.534.532,72.811l-18.926-10.763V147.115c-2.138-16.482-10.026-30.57-21.577-43.153C93.24,96.77,73.555,84.626,57.279,79.04,37.738,71.111,17.993,81.955,4.847,95.532Z" transform="translate(-18784.592 -9490.869)" fill="#fff" fill-rule="evenodd"/>
  </g>
</svg>
