<svg width="14" height="16" viewBox="0 0 14 16" fill="none" xmlns="http://www.w3.org/2000/svg">
<path d="M7.00098 0C4.79184 0 3.00098 1.79086 3.00098 4C3.00098 6.20914 4.79184 8 7.00098 8C9.21012 8 11.001 6.20914 11.001 4C11.001 1.79086 9.21012 0 7.00098 0ZM2.0097 9C0.904127 9 0.000976562 9.88687 0.000976562 11C0.000976562 12.6912 0.833786 13.9663 2.13597 14.7966C3.41794 15.614 5.14623 16 7.00098 16C8.85572 16 10.584 15.614 11.866 14.7966C13.1682 13.9663 14.001 12.6912 14.001 11C14.001 9.89557 13.1055 9.00001 12.001 9.00001L2.0097 9Z" fill="#1A2F46"/>
</svg>
