<svg id="TWITTER" xmlns="http://www.w3.org/2000/svg" width="100" height="100" viewBox="0 0 100 100">
  <rect id="Rectangle_153" data-name="Rectangle 153" width="100" height="100" rx="50" transform="translate(0 0)" fill="#fff"/>
  <path id="Path_3298" data-name="Path 3298" d="M280.235,87.2A9.953,9.953,0,0,1,271,80.306a9.742,9.742,0,0,0,4.258-.122l.139-.061a9.947,9.947,0,0,1-6.448-4.554,9.663,9.663,0,0,1-1.448-5.278,9.729,9.729,0,0,0,4.415,1.2,9.973,9.973,0,0,1-4.083-6.02,9.8,9.8,0,0,1,1.065-7.18,28.41,28.41,0,0,0,20.459,10.365c-.061-.393-.113-.733-.157-1.082a9.92,9.92,0,0,1,16.865-8.21.493.493,0,0,0,.524.157,19.82,19.82,0,0,0,5.767-2.225l.131-.061.07-.009a10.132,10.132,0,0,1-4.249,5.4,19.175,19.175,0,0,0,5.523-1.483l.044.044c-.384.5-.75,1-1.143,1.483a19.163,19.163,0,0,1-3.6,3.429.35.35,0,0,0-.166.314,27.582,27.582,0,0,1-.183,4.406,29.345,29.345,0,0,1-2.556,8.829,28.654,28.654,0,0,1-5.366,7.826,26.536,26.536,0,0,1-13.637,7.59,29.944,29.944,0,0,1-5.523.663,28.006,28.006,0,0,1-15.87-4.266l-.236-.148a20,20,0,0,0,14.64-4.118Z" transform="translate(-239.735 -26.097)" fill="#9b1f15" fill-rule="evenodd"/>
</svg>
