<svg
  xmlns="http://www.w3.org/2000/svg"
  width="24"
  height="24"
  viewBox="0 0 24 24"
  fill="none"
>
  <path
    d="M10.9082 2.78216C11.948 2.20625 13.246 2.54089 13.8839 3.5224L13.9667 3.66023L21.7256 17.6685C21.9104 18.0021 22.0074 18.3773 22.0074 18.7587C22.0074 19.9495 21.0822 20.9243 19.9114 21.0035L19.7574 21.0087H4.24162C3.86031 21.0087 3.48526 20.9118 3.15167 20.7271C2.11183 20.1513 1.70679 18.8734 2.20035 17.812L2.27325 17.6687L10.03 3.66046C10.2346 3.2911 10.5389 2.98674 10.9082 2.78216ZM12.0002 16.0018C11.4486 16.0018 11.0015 16.4489 11.0015 17.0004C11.0015 17.552 11.4486 17.9991 12.0002 17.9991C12.5517 17.9991 12.9989 17.552 12.9989 17.0004C12.9989 16.4489 12.5517 16.0018 12.0002 16.0018ZM11.998 7.99806C11.4852 7.99825 11.0627 8.38444 11.0051 8.8818L10.9984 8.99842L11.0002 13.9993L11.007 14.1159C11.0649 14.6132 11.4877 14.9991 12.0006 14.9989C12.5134 14.9988 12.9359 14.6126 12.9935 14.1152L13.0002 13.9986L12.9984 8.9977L12.9916 8.88108C12.9337 8.38376 12.5109 7.99788 11.998 7.99806Z"
    fill="#FFA800"
  />
</svg>