<svg id="YOUTUBE" xmlns="http://www.w3.org/2000/svg" width="100" height="100" viewBox="0 0 100 100">
  <rect id="Rectangle_165" data-name="Rectangle 165" width="100" height="100" rx="50" transform="translate(0 0)" fill="#fff"/>
  <path id="Path_3329" data-name="Path 3329" d="M271.123,155.565a6.308,6.308,0,0,1-4.134-4.022c-1.784-4.929-2.315-25.546,1.132-29.6a6.646,6.646,0,0,1,4.491-2.39c9.269-1,37.937-.864,41.235.332a6.486,6.486,0,0,1,4.064,3.909c1.949,5.1,2.019,23.626-.261,28.538a6.3,6.3,0,0,1-2.907,2.94C311.279,157.092,275.675,157.066,271.123,155.565Zm14.734-9.667c5.57-2.9,11.1-5.767,16.7-8.681-5.6-2.932-11.131-5.828-16.7-8.742Z" transform="translate(-242.477 -87.773)" fill="#9b1f15" fill-rule="evenodd"/>
</svg>
